<svg id="dd824bbc-058f-4d00-ade4-e1a0a374cc67" data-name="Ebene 1" xmlns="http://www.w3.org/2000/svg" width="20" height="20" viewBox="0 0 20 20">
  <defs>
    <style>
      .\39 84fe376-ba7a-41bd-8d5d-4c6965018a62 {
        fill: #fff;
      }
    </style>
  </defs>
  <title>Unbenannt-1</title>
  <g>
    <path class="984fe376-ba7a-41bd-8d5d-4c6965018a62" d="M6,7.14v9.53a1,1,0,0,0,1,1h8.57a1,1,0,0,0,1-1V7.14H6Zm2.86,8.57h-1V9h1v6.67Zm1.91,0h-1V9h1v6.67Zm1.91,0h-1V9h1v6.67Zm1.91,0h-1V9h1v6.67Z"/>
    <path class="984fe376-ba7a-41bd-8d5d-4c6965018a62" d="M16.7,4.28H13.6V3.09a0.72,0.72,0,0,0-.71-0.71H9.55a0.72,0.72,0,0,0-.71.71V4.28H5.74A0.72,0.72,0,0,0,5,5V6.19H17.41V5A0.72,0.72,0,0,0,16.7,4.28Zm-4,0H9.79V3.34h2.86V4.28Z"/>
  </g>
</svg>
