<svg id="Ebene_1" data-name="Ebene 1" xmlns="http://www.w3.org/2000/svg" viewBox="0 0 18.43 22.68" width="24px" height="24px"><defs><style>.cls-1{fill:#1784c7;}</style></defs><title>delete</title><path class="cls-1" d="M4.7,7.75V21.92a1.42,1.42,0,0,0,1.42,1.42H18.88a1.42,1.42,0,0,0,1.42-1.42V7.75H4.7ZM9,20.5H7.54V10.58H9V20.5Zm2.83,0H10.37V10.58h1.42V20.5Zm2.83,0H13.21V10.58h1.42V20.5Zm2.83,0H16V10.58h1.42V20.5Z" transform="translate(-3.29 -0.66)"/><path class="cls-1" d="M20.65,3.5H16V1.72A1.07,1.07,0,0,0,15,.66H10A1.07,1.07,0,0,0,9,1.72V3.5H4.35A1.07,1.07,0,0,0,3.29,4.56V6.33H21.71V4.56A1.07,1.07,0,0,0,20.65,3.5Zm-6,0H10.37V2.1h4.25V3.5Z" transform="translate(-3.29 -0.66)"/></svg>