<?xml version="1.0" encoding="utf-8"?>
<!-- Generator: Adobe Illustrator 19.2.0, SVG Export Plug-In . SVG Version: 6.00 Build 0)  -->
<svg version="1.1" id="Ebene_1" xmlns="http://www.w3.org/2000/svg" xmlns:xlink="http://www.w3.org/1999/xlink" x="0px" y="0px"
	 width="32px" height="32px" viewBox="0 0 32 32" style="enable-background:new 0 0 32 32;" xml:space="preserve">
<style type="text/css">
	.st0{fill:#CC1417;}
</style>
<g transform="translate(32 1504)">
	<path class="st0" d="M-4.3-1480.8L-4.3-1480.8l-7.2-7.2l7.2-7.2l0,0c0.1-0.1,0.1-0.2,0.2-0.3c0.1-0.3,0-0.6-0.2-0.8l-3.4-3.4
		c-0.2-0.2-0.5-0.3-0.8-0.2c-0.1,0-0.2,0.1-0.3,0.2l0,0l-7.2,7.2l-7.2-7.2l0,0c-0.1-0.1-0.2-0.1-0.3-0.2c-0.3-0.1-0.6,0-0.8,0.2
		l-3.4,3.4c-0.2,0.2-0.3,0.5-0.2,0.8c0,0.1,0.1,0.2,0.2,0.3l0,0l7.2,7.2l-7.2,7.2l0,0c-0.1,0.1-0.1,0.2-0.2,0.3
		c-0.1,0.3,0,0.6,0.2,0.8l3.4,3.4c0.2,0.2,0.5,0.3,0.8,0.2c0.1,0,0.2-0.1,0.3-0.2l0,0l7.2-7.2l7.2,7.2l0,0c0.1,0.1,0.2,0.1,0.3,0.2
		c0.3,0.1,0.6,0,0.8-0.2l3.4-3.4c0.2-0.2,0.3-0.5,0.2-0.8C-4.2-1480.6-4.2-1480.7-4.3-1480.8z"/>
</g>
</svg>
