<svg id="9078d255-0ae3-44b1-abb9-2734d06cd59f" data-name="Ebene 1" xmlns="http://www.w3.org/2000/svg" width="30" height="30" viewBox="0 0 30 30">
  <defs>
    <style>
      .a6939710-90fb-4434-9ded-7a0f88358da6 {
        fill: #fff;
      }
    </style>
  </defs>
  <title>navi</title>
  <g>
    <path class="a6939710-90fb-4434-9ded-7a0f88358da6" d="M26.17,15a0.5,0.5,0,0,0,1,0V7.67A1.14,1.14,0,0,0,26,6.53H4.42A1.25,1.25,0,0,0,3.17,7.78v13.5a1.25,1.25,0,0,0,1.25,1.25H20.67a0.5,0.5,0,0,0,0-1H4.42a0.25,0.25,0,0,1-.25-0.25V7.78a0.25,0.25,0,0,1,.25-0.25H25.68a0.51,0.51,0,0,1,.51.51Z"/>
    <path class="a6939710-90fb-4434-9ded-7a0f88358da6" d="M28.17,18.53h-2v-2h-2v2h-2v2h2v2h2v-2h2v-2Z"/>
  </g>
</svg>
